<?xml version="1.0" standalone="no"?><!DOCTYPE svg PUBLIC "-//W3C//DTD SVG 1.1//EN" "http://www.w3.org/Graphics/SVG/1.1/DTD/svg11.dtd"><svg t="1693231407121" class="icon" viewBox="0 0 1024 1024" version="1.1" xmlns="http://www.w3.org/2000/svg" p-id="4088" xmlns:xlink="http://www.w3.org/1999/xlink" width="200" height="200"><path d="M653.165714 136.118857a77.092571 77.092571 0 1 1 0 154.258286 77.092571 77.092571 0 0 1 0-154.258286z m0 298.788572a77.092571 77.092571 0 1 1 0 154.185142 77.092571 77.092571 0 0 1 0-154.185142z m-215.552 337.334857a77.092571 77.092571 0 1 0-73.654857 115.346285l6.875429 0.292572 6.802285-0.292572a77.092571 77.092571 0 0 0 59.977143-115.346285z m282.331429 0a77.092571 77.092571 0 1 0-73.581714 115.346285l6.802285 0.292572 6.875429-0.292572a77.092571 77.092571 0 0 0 59.977143-115.346285zM447.853714 512a77.092571 77.092571 0 1 0-154.112 0 77.092571 77.092571 0 0 0 154.185143 0z m0-298.788571a77.092571 77.092571 0 1 0-154.112 0 77.092571 77.092571 0 0 0 154.185143 0z" p-id="4089"></path></svg>
