<?xml version="1.0" standalone="no"?><!DOCTYPE svg PUBLIC "-//W3C//DTD SVG 1.1//EN" "http://www.w3.org/Graphics/SVG/1.1/DTD/svg11.dtd"><svg t="1755414508852" class="icon" viewBox="0 0 1024 1024" version="1.1" xmlns="http://www.w3.org/2000/svg" p-id="5077" xmlns:xlink="http://www.w3.org/1999/xlink" width="200" height="200"><path d="M382.083092 103.46649c-63.464427-1.533936-127.026068-1.561565-190.487426 0.055259-53.880141 1.372254-85.946464 33.283034-87.525426 87.481424-1.797949 61.73504-1.627057 123.591853-0.105401 185.339172 1.404999 57.042157 33.665751 88.862887 89.9875 91.055832 30.846542 1.199315 61.778019 0.213871 92.672656 0.213871 0 0.028653 0 0.056282 0 0.083911 29.176506 0 58.354036 0.00614 87.531566-0.00921 3.431146-0.001023 6.875594 0.041956 10.292414-0.216941 48.928363-3.715625 81.464383-31.601742 83.803661-80.676437 3.181459-66.76766 3.149736-133.886313 0.339738-200.679555C466.399429 133.932362 434.319803 104.728226 382.083092 103.46649zM382.809639 326.601476c-1.852184 39.628556-13.759375 53.398164-51.557236 55.394634-30.725792 1.62194-61.703317 1.765203-92.399433-0.149403-32.220842-2.009773-46.292326-15.942087-48.330752-48.552809-2.0241-32.391734-2.106987-65.126276 0.084934-97.497545 2.218528-32.758078 16.121166-45.288462 49.213865-46.934962 29.033243-1.445932 58.216913-1.12973 87.290065-0.204661 42.455951 1.352811 53.884234 13.18837 55.727209 55.779398 0.591471 13.670348 0.092098 27.387767 0.092098 41.083697C382.910946 299.214732 383.448182 312.935222 382.809639 326.601476z" p-id="5078"></path><path d="M468.882993 657.431254c-4.913916-60.099796-41.872666-98.956779-102.147448-102.763478-52.990888-3.346211-106.532315-3.412726-159.51604-0.01228-61.944817 3.976568-100.907201 45.841048-103.177917 107.370403-1.833765 49.715285-1.805112 99.604532 0 149.322887 2.232854 61.528332 42.130539 104.631012 102.679567 108.128673 53.03489 3.062755 106.506732 2.89391 159.566182 0.060375 58.997696-3.15076 97.389074-42.913369 102.529141-102.56598 2.201132-25.550932 0.367367-51.450812 0.367367-77.191056 0.026606-0.001023 0.052189-0.001023 0.079818-0.001023C469.264687 712.319351 471.113801 684.708504 468.882993 657.431254zM382.675586 782.808776c-2.190899 34.758642-12.473079 47.623647-45.6282 49.79715-34.019815 2.229784-68.343551 1.291412-102.46672-0.023536-25.611308-0.98749-42.219567-15.757892-43.433208-41.638329-1.677199-35.783994-2.509147-71.849398 0.088004-107.518782 2.159176-29.66667 15.978926-40.48711 47.819099-41.923832 30.705326-1.38658 61.556984-1.324158 92.27459-0.118704 37.119409 1.456165 48.879244 13.204743 51.307549 49.15349 1.033539 15.312754 0.172939 30.752398 0.172939 46.134737C382.837268 752.053308 383.641587 767.487835 382.675586 782.808776z" p-id="5079"></path><path d="M638.57479 466.816938c66.850547 2.182712 133.883243 2.231831 200.728674-0.028653 48.106648-1.626034 78.501912-34.31555 80.94966-82.898035 1.64036-32.522718 0.314155-65.192791 0.314155-97.798397 0.059352 0 0.11768 0 0.179079 0 0-29.172413 0.00307-58.344826-0.005117-87.518263-0.001023-3.432169 0.093121-6.873548-0.12075-10.29446-3.236718-51.777247-32.659841-83.20298-84.458577-84.650959-65.155952-1.823532-130.440841-1.778506-195.600887 0.026606-49.254797 1.363044-81.71714 31.976272-83.380012 80.049151-2.311649 66.843384-2.186805 133.86994-0.181125 200.731744C558.447868 432.736748 590.484515 465.247186 638.57479 466.816938zM741.201146 188.404997c93.184309 0.01535 94.452185 1.293459 94.463442 95.220688 0.013303 96.830349-1.986237 98.871845-96.788393 98.867752-94.392834-0.00307-95.619778-3.049452-97.831142-98.688673C638.645398 180.001607 661.610436 186.680726 741.201146 188.404997z" p-id="5080"></path><path d="M920.572396 648.266523c-1.480724-60.789505-30.968315-91.400686-92.039229-94.661963-29.169343-1.557472-58.490136-0.268106-87.74339-0.268106 0 0.026606 0 0.054235 0 0.081864-30.973432 0-61.944817-0.023536-92.918249 0.033769-3.430122 0.005117-6.882757 0.301875-10.286274 0.754177-49.282427 6.53381-79.299067 35.871999-80.674391 84.646865-1.842974 65.332984-1.825578 130.800022 0.019443 196.134029 1.363044 48.254004 32.605605 80.758302 80.595596 84.460624 35.921117 2.77009 72.291466 2.163269 108.320031 0.312108 28.821419-1.480724 47.916313-22.113647 46.582945-45.146223-1.246387-21.555945-18.568914-37.535895-46.165436-40.08188-18.794042-1.732457-37.942147 0.300852-56.714699-1.548262-33.032324-3.25309-45.76737-15.984043-47.504944-49.426713-1.604544-30.888498-1.589195-61.992913 0.01228-92.883457 1.760087-33.962509 14.537088-47.378054 47.042409-49.022507 32.609699-1.64957 65.424058-1.603521 98.042967-0.060375 33.308617 1.575892 45.543266 14.44499 48.069809 47.957245 1.420349 18.831904-0.680499 37.95238 1.060145 56.734142 2.576685 27.819602 18.188244 42.528606 42.153052 42.564421 24.260543 0.036839 40.095183-14.295588 41.678238-42.527582C921.931347 713.724351 921.368528 680.938644 920.572396 648.266523z" p-id="5081"></path></svg>