<?xml version="1.0" standalone="no"?><!DOCTYPE svg PUBLIC "-//W3C//DTD SVG 1.1//EN" "http://www.w3.org/Graphics/SVG/1.1/DTD/svg11.dtd"><svg t="1694757660470" class="icon" viewBox="0 0 1024 1024" version="1.1" xmlns="http://www.w3.org/2000/svg" p-id="12536" xmlns:xlink="http://www.w3.org/1999/xlink" width="200" height="200"><path d="M121.856 736a445.952 445.952 0 0 1-59.968-224c0-247.424 200.576-448 448-448a448 448 0 0 1 128.736 18.784c29.76 8.928 30.624 50.752 1.28 60.896A288.256 288.256 0 0 0 453.024 352H352l-3.744 0.224a32 32 0 0 0 0 63.552L352 416h93.888a288 288 0 0 0 288 288c46.72 0 91.776-11.104 132.32-32.128 27.616-14.304 57.344 15.2 43.232 42.912A447.872 447.872 0 0 1 509.888 960a447.04 447.04 0 0 1-343.136-159.968L256 800l3.744-0.224a32 32 0 0 0 0-63.552L256 736H121.856zM640 512h160a32 32 0 0 1 3.744 63.776L800 576h-160a32 32 0 0 1-3.744-63.776L640 512z m256 0h32a32 32 0 0 1 3.744 63.776L928 576h-32a32 32 0 0 1-3.744-63.776L896 512h32-32z m-402.112-160a32 32 0 0 1 3.744 63.776l-3.744 0.224h-48c0-21.888 2.464-43.328 7.168-64h40.832zM704 352a32 32 0 0 1 3.744 63.776L704 416h-96a32 32 0 0 1-3.744-63.776L608 352h96zM121.856 736c13.12 22.72 28.16 44.096 44.896 64.032L96 800a32 32 0 0 1-3.744-63.776L96 736h25.856z" p-id="12537"></path></svg>
