<?xml version="1.0" standalone="no"?><!DOCTYPE svg PUBLIC "-//W3C//DTD SVG 1.1//EN" "http://www.w3.org/Graphics/SVG/1.1/DTD/svg11.dtd"><svg t="1690772353983" class="icon" viewBox="0 0 1024 1024" version="1.1" xmlns="http://www.w3.org/2000/svg" p-id="3287" xmlns:xlink="http://www.w3.org/1999/xlink" width="200" height="200"><path d="M1024 37.376v293.12a36.864 36.864 0 0 1-36.608 36.864h-256a36.864 36.864 0 0 1-36.608-36.864V37.376A36.864 36.864 0 0 1 731.136 0h256A36.864 36.864 0 0 1 1024 37.376z m0 657.152v293.12A36.608 36.608 0 0 1 987.392 1024h-256a36.864 36.864 0 0 1-36.608-36.864V694.528a36.864 36.864 0 0 1 36.608-36.864h256A36.864 36.864 0 0 1 1024 694.528zM329.472 364.8v293.376a36.608 36.608 0 0 1-36.608 36.608h-256A36.608 36.608 0 0 1 0 658.176V364.8a36.608 36.608 0 0 1 36.608-36.608h256a36.352 36.352 0 0 1 36.608 36.608z m-256 256H256v-219.392H73.216z m0 0" p-id="3288"></path><path d="M553.472 512a38.4 38.4 0 0 1-35.584 41.472h-177.664A38.4 38.4 0 0 1 304.64 512a38.4 38.4 0 0 1 35.584-41.472h177.664A38.4 38.4 0 0 1 553.472 512z m0 0" p-id="3289"></path><path d="M553.472 174.848v647.68a38.656 38.656 0 0 1-41.472 35.84 38.912 38.912 0 0 1-41.472-35.84V174.848A38.912 38.912 0 0 1 512 139.008a38.656 38.656 0 0 1 41.472 35.84z m0 0" p-id="3290"></path><path d="M684.288 858.368h-177.92a34.56 34.56 0 0 1-25.6-10.752 35.584 35.584 0 0 1-10.496-25.6 36.096 36.096 0 0 1 10.496-25.6 34.56 34.56 0 0 1 25.6-10.752h179.2a34.56 34.56 0 0 1 25.6 10.752 35.84 35.84 0 0 1 10.24 25.6 35.328 35.328 0 0 1-10.24 25.6 34.56 34.56 0 0 1-25.6 10.752z m0-647.424h-178.176a36.096 36.096 0 1 1 0-71.936h177.664a36.096 36.096 0 1 1 0 71.936z m0 0" p-id="3291"></path></svg>