<?xml version="1.0" standalone="no"?><!DOCTYPE svg PUBLIC "-//W3C//DTD SVG 1.1//EN" "http://www.w3.org/Graphics/SVG/1.1/DTD/svg11.dtd"><svg t="1686230689059" class="icon" viewBox="0 0 1024 1024" version="1.1" xmlns="http://www.w3.org/2000/svg" p-id="8233" xmlns:xlink="http://www.w3.org/1999/xlink" width="200" height="200"><path d="M709.404444 343.04c-7.300741 0-14.601481-2.74963-20.10074-8.343704L583.49037 228.977778c-6.542222-6.542222-9.481481-15.739259-7.964444-24.841482L596.29037 80.592593c1.801481-10.524444 9.291852-19.152593 19.342223-22.376297 10.145185-3.223704 21.238519-0.568889 28.823703 7.016297l157.108148 157.108148c11.093333 11.093333 11.093333 29.108148 0 40.201481s-29.108148 11.093333-40.201481 0L643.318519 144.497778l-9.197038 54.613333 95.383704 95.383704c11.093333 11.093333 11.093333 29.108148 0 40.201481-5.594074 5.594074-12.894815 8.343704-20.100741 8.343704z" p-id="8234"></path><path d="M288.711111 449.517037c-9.102222 0-18.10963-4.361481-23.608889-12.515556-8.817778-12.98963-5.30963-30.72 7.68-39.442962l314.974815-212.195556c12.98963-8.817778 30.72-5.30963 39.442963 7.68 8.817778 12.98963 5.30963 30.72-7.68 39.442963L304.545185 444.681481c-4.835556 3.223704-10.334815 4.835556-15.834074 4.835556z" p-id="8235"></path><path d="M355.271111 697.173333c-7.300741 0-14.601481-2.74963-20.100741-8.343703L83.531852 437.191111c-8.248889-8.248889-10.619259-20.574815-6.068148-31.288889 4.551111-10.714074 15.17037-17.540741 26.737777-17.256296l185.078519 3.982222c7.300741 0.18963 14.317037 3.128889 19.531852 8.343704l198.068148 198.068148c11.093333 11.093333 11.093333 29.108148 0 40.201481s-29.108148 11.093333-40.201481 0L276.66963 449.232593l-102.77926-2.275556L375.466667 648.533333c11.093333 11.093333 11.093333 29.108148 0 40.201482-5.594074 5.594074-12.894815 8.438519-20.195556 8.438518zM938.666667 428.088889c-7.300741 0-14.601481-2.74963-20.100741-8.343704L761.362963 262.542222c-11.093333-11.093333-11.093333-29.108148 0-40.201481s29.108148-11.093333 40.201481 0l157.108149 157.108148c11.093333 11.093333 11.093333 29.108148 0 40.201481-5.499259 5.594074-12.8 8.438519-20.005926 8.438519zM602.927407 763.733333c-5.499259 0-10.998519-1.611852-15.834074-4.835555-12.98963-8.817778-16.497778-26.453333-7.68-39.442963l212.195556-314.974815c8.817778-12.98963 26.453333-16.497778 39.442963-7.68 12.98963 8.817778 16.497778 26.453333 7.68 39.442963L626.536296 751.217778c-5.499259 8.154074-14.506667 12.515556-23.608889 12.515555z" p-id="8236"></path><path d="M606.90963 948.811852c-7.395556 0-14.696296-2.844444-20.100741-8.343704L335.17037 688.82963c-11.093333-11.093333-11.093333-29.108148 0-40.201482s29.108148-11.093333 40.201482 0l201.576296 201.576296-2.465185-114.251851c-0.379259-15.739259 12.136296-28.728889 27.780741-29.013334h0.663703c15.454815 0 28.065185 12.325926 28.444445 27.780741l3.982222 185.078519c0.284444 11.662222-6.542222 22.186667-17.256296 26.737777-3.602963 1.517037-7.395556 2.275556-11.188148 2.275556z" p-id="8237"></path><path d="M85.333333 967.111111c-7.300741 0-14.601481-2.74963-20.10074-8.343704-11.093333-11.093333-11.093333-29.108148 0-40.201481l269.937777-269.937778c11.093333-11.093333 29.108148-11.093333 40.201482 0s11.093333 29.108148 0 40.201482l-269.937778 269.937777c-5.499259 5.499259-12.8 8.343704-20.100741 8.343704z" p-id="8238"></path></svg>