<?xml version="1.0" standalone="no"?><!DOCTYPE svg PUBLIC "-//W3C//DTD SVG 1.1//EN" "http://www.w3.org/Graphics/SVG/1.1/DTD/svg11.dtd"><svg class="icon" width="200px" height="200.00px" viewBox="0 0 1024 1024" version="1.1" xmlns="http://www.w3.org/2000/svg"><path d="M512.00012 0.00064a318.847801 318.847801 0 0 1 226.303859 93.695941A318.911801 318.911801 0 0 1 831.99992 320.00044a318.847801 318.847801 0 0 1-93.695941 226.303859A318.911801 318.911801 0 0 1 560.00009 636.416242v83.583948h159.9999A47.87197 47.87197 0 0 1 767.99996 768.00016a47.87197 47.87197 0 0 1-47.99997 47.99997h-159.9999v159.9359a47.87197 47.87197 0 0 1-47.99997 47.99997 47.87197 47.87197 0 0 1-47.99997-47.99997V816.00013h-159.9999A47.87197 47.87197 0 0 1 256.00028 768.00016a47.87197 47.87197 0 0 1 47.99997-47.99997h159.9999V636.416242a318.847801 318.847801 0 0 1-178.303889-90.175943A318.847801 318.847801 0 0 1 192.00032 320.00044a318.847801 318.847801 0 0 1 93.695941-226.303859A318.847801 318.847801 0 0 1 512.00012 0.00064z m0 95.99994C388.480197 96.00058 288.00026 196.480517 288.00026 320.00044S388.480197 544.0003 512.00012 544.0003 735.99998 443.520363 735.99998 320.00044 635.520043 96.00058 512.00012 96.00058z" fill="#BB0FCF" /></svg>