<?xml version="1.0" standalone="no"?><!DOCTYPE svg PUBLIC "-//W3C//DTD SVG 1.1//EN" "http://www.w3.org/Graphics/SVG/1.1/DTD/svg11.dtd"><svg t="1693211890184" class="icon" viewBox="0 0 1024 1024" version="1.1" xmlns="http://www.w3.org/2000/svg" p-id="22241" xmlns:xlink="http://www.w3.org/1999/xlink" width="200" height="200"><path d="M565.248 314.368H125.952c-17.408 0-33.792-9.216-41.984-24.576-9.216-15.36-9.216-33.792 0-49.152s24.576-24.576 41.984-24.576h439.296c13.312 0 25.6 5.12 34.816 14.336 9.216 9.216 14.336 21.504 14.336 34.816 0 27.648-22.528 49.152-49.152 49.152z m371.712-14.336L812.032 174.08 686.08 300.032a33.9968 33.9968 0 0 0 0 48.128c13.312 13.312 34.816 13.312 48.128 0l43.008-43.008v122.88c0 19.456 15.36 34.816 34.816 34.816s34.816-15.36 34.816-34.816V306.176l41.984 41.984c13.312 13.312 34.816 13.312 48.128 0 13.312-13.312 13.312-34.816 0-48.128z m0 423.936L812.032 849.92 686.08 723.968a33.9968 33.9968 0 0 1 0-48.128c13.312-13.312 34.816-13.312 48.128 0l43.008 43.008v-122.88c0-19.456 15.36-34.816 34.816-34.816s34.816 15.36 34.816 34.816v121.856l41.984-41.984c13.312-13.312 34.816-13.312 48.128 0 13.312 13.312 13.312 34.816 0 48.128zM565.248 559.104H125.952c-17.408 0-33.792-9.216-41.984-24.576s-9.216-33.792 0-49.152C92.16 471.04 108.544 460.8 125.952 460.8h439.296c13.312 0 25.6 5.12 34.816 14.336 9.216 9.216 14.336 21.504 14.336 34.816 0 27.648-22.528 49.152-49.152 49.152z m0 243.712H125.952c-26.624 0-49.152-21.504-49.152-49.152 0-26.624 21.504-49.152 49.152-49.152h439.296c13.312 0 25.6 5.12 34.816 14.336 9.216 9.216 14.336 21.504 14.336 34.816 0 27.648-22.528 49.152-49.152 49.152z m0 0" p-id="22242"></path></svg>