<?xml version="1.0" standalone="no"?><!DOCTYPE svg PUBLIC "-//W3C//DTD SVG 1.1//EN" "http://www.w3.org/Graphics/SVG/1.1/DTD/svg11.dtd"><svg class="icon" width="200px" height="200.00px" viewBox="0 0 1024 1024" version="1.1" xmlns="http://www.w3.org/2000/svg"><path d="M672 64a64 64 0 0 1 63.552 56.512L736 128v64h132.544c46.656 0 86.528 32 91.008 75.008L960 275.2v596.8c0 46.144-36.608 83.392-82.688 87.616l-8.768 0.384H155.52c-47.168 0-86.592-34.56-91.008-79.488L64 872V275.2c0-44.352 37.12-78.912 82.752-82.816L155.52 192H288V128a64 64 0 0 1 56.512-63.552L352 64h320z m196.544 192H155.52c-14.08 0-24.576 7.488-26.88 15.68L128 275.2V448h146.304v64H128v360c0 11.2 9.088 21.12 21.76 23.488L155.52 896H868.48c13.632 0 24.448-8.576 26.88-19.264l0.576-4.736V512h-146.304V448H896V275.2c0-8.32-8.64-16.768-21.632-18.752L868.608 256zM608 448v64h-192V448h192z m64-320h-320v64h320V128z" /><path d="M384 352a32 32 0 0 1 32 32v192a32 32 0 0 1-32 32H256a32 32 0 0 1-32-32V384a32 32 0 0 1 32-32h128z m-32 64h-64v128h64v-128zM768 352a32 32 0 0 1 32 32v192a32 32 0 0 1-32 32h-128a32 32 0 0 1-32-32V384a32 32 0 0 1 32-32h128z m-32 64h-64v128h64v-128z" /></svg>
